<svg width="698" height="109" viewBox="0 0 698 109" fill="none" xmlns="http://www.w3.org/2000/svg">
<path d="M9.9668 67.8202C10.313 67.0145 10.6303 66.2377 10.9765 65.4608C12.3113 61.9666 14.2657 58.7405 16.7464 55.9369C18.2635 54.1869 20.2742 52.9335 22.5162 52.3403C23.1583 52.1492 23.8326 52.0899 24.4984 52.1659C25.1642 52.2418 25.8076 52.4515 26.3899 52.7822C26.9722 53.1129 27.4813 53.5578 27.8866 54.0901C28.2918 54.6224 28.5847 55.2311 28.7476 55.8793C28.927 56.6747 28.9349 57.499 28.7707 58.2976C28.6066 59.0962 28.2742 59.851 27.7956 60.5118C26.5752 62.2955 24.903 63.7251 22.9489 64.6551C19.9496 66.14 16.7218 67.1126 13.3999 67.5324L9.9668 67.9353V67.8202Z" fill="#00458E"/>
<path d="M30.3643 30.9888C32.4708 31.0143 34.5579 31.3937 36.538 32.1109C36.7531 32.2148 36.9964 32.2457 37.2308 32.199C37.4651 32.1522 37.6777 32.0304 37.8362 31.852C41.6705 28.6068 45.7938 25.7175 50.1548 23.22C55.6098 20.1452 61.6016 18.1336 67.8106 17.2928C70.0319 17.0338 72.2822 17.0626 74.5036 17.0051C74.709 16.9863 74.9158 17.0201 75.1045 17.1033C75.2931 17.1865 75.4573 17.3164 75.5816 17.4807C75.7058 17.6449 75.7859 17.8381 75.8144 18.0419C75.8428 18.2456 75.8186 18.4533 75.7441 18.6451C75.3202 20.4395 74.7904 22.2073 74.1574 23.9394C71.1163 31.752 66.1563 38.6776 59.7328 44.0805C57.3094 46.2097 54.7419 48.1663 52.1743 50.0941C51.8876 50.2796 51.6613 50.5444 51.523 50.8561C51.3846 51.1677 51.3403 51.5129 51.3954 51.8492C51.6946 54.4187 51.3373 57.0218 50.3568 59.4166C49.251 61.9086 47.3142 63.942 44.8754 65.1712C41.6902 66.9185 38.256 68.1702 34.6917 68.8829L32.2683 69.5159C32.0861 69.5527 31.8972 69.5371 31.7235 69.4708C31.5498 69.4046 31.3986 69.2905 31.2875 69.1419C30.892 68.7833 30.6416 68.2929 30.5831 67.7631C30.5247 67.2332 30.6623 66.7003 30.9701 66.2646C32.1241 64.049 33.105 61.7472 34.1724 59.5029C34.2894 59.3555 34.3531 59.173 34.3531 58.985C34.3531 58.797 34.2894 58.6145 34.1724 58.4671C31.249 54.7266 28.3641 50.9765 25.5176 47.2168C25.4085 47.0275 25.2354 46.883 25.0293 46.8092C24.8232 46.7354 24.5975 46.7371 24.3925 46.814L15.9397 48.3677C15.7731 48.4085 15.598 48.3973 15.438 48.3355C15.278 48.2738 15.141 48.1645 15.0454 48.0224C13.8914 46.6125 13.8914 46.6413 14.6992 44.9725C16.3751 41.4232 18.5619 38.1372 21.1902 35.2184C23.1247 32.9764 25.8117 31.5138 28.7487 31.1039C29.2849 31.0379 29.8242 30.9995 30.3643 30.9888ZM27.4794 45.6055L27.8256 46.0946C30.422 49.4323 32.9992 52.7796 35.5572 56.1364C35.6098 56.2355 35.6832 56.322 35.7725 56.39C35.8618 56.458 35.9648 56.506 36.0744 56.5306C36.1841 56.5552 36.2977 56.5558 36.4076 56.5325C36.5175 56.5092 36.6211 56.4624 36.7111 56.3954C44.533 52.5813 51.8095 47.743 58.348 42.0089C64.2729 36.9054 68.8582 30.4358 71.7052 23.1625C72.1091 22.0979 72.4264 21.0045 72.8303 19.8248C72.4264 19.8248 72.1668 19.8248 71.936 19.8248C70.5224 19.8248 69.0511 19.9975 67.6952 20.1989C61.5804 21.0987 55.7006 23.1805 50.3856 26.3275C43.4423 30.4923 37.0875 35.5628 31.4894 41.4046C30.1624 42.6706 28.893 44.1381 27.5371 45.6055H27.4794ZM34.2012 34.2977C34.2012 34.2977 34.2012 34.2977 34.0281 34.2977C32.2668 33.664 30.3626 33.5357 28.5318 33.9273C26.7011 34.3189 25.0171 35.2148 23.6713 36.5132C21.378 38.8401 19.4346 41.4859 17.9014 44.3682L17.3533 45.4904H17.9014L24.3925 44.1668C24.7088 44.0822 24.9848 43.8885 25.1714 43.6201C27.5082 41.2032 29.7873 38.7287 32.0952 36.283C32.7588 35.65 33.5089 34.9882 34.2589 34.2977H34.2012ZM48.8566 53.144L48.4239 53.3742C44.8535 55.6882 41.1225 57.7459 37.2593 59.5317C36.9976 59.6675 36.793 59.8919 36.6823 60.1647C35.7591 62.0637 34.8648 63.9627 33.9704 65.9193L33.7685 66.4947H34.1147C37.5024 65.7958 40.7685 64.6033 43.808 62.9557C45.5258 61.995 46.9244 60.5544 47.8317 58.8111C48.739 57.0678 49.1153 55.0979 48.9143 53.144H48.8566Z" fill="#059B28"/>
<path d="M69.3101 73.8319C69.3101 65.6316 69.3101 57.4025 69.3101 49.2022C69.3101 48.5404 69.512 48.3678 70.1467 48.3965H75.3107C75.9743 48.3965 76.1762 48.5404 76.1762 49.231C76.1762 57.6039 76.1762 65.9769 76.1762 74.3499V98.289C76.1762 99.2098 76.1762 99.2098 75.253 99.2098H70.1179C69.4832 99.2098 69.2812 99.0659 69.2812 98.4041C69.3197 90.2518 69.3293 82.061 69.3101 73.8319Z" fill="#707070"/>
<path d="M56.7925 78.6072V58.7825C56.7925 57.833 56.7925 57.833 57.7157 57.833H62.9951C63.4855 57.833 63.6586 57.9769 63.6586 58.466C63.6586 71.8934 63.6586 85.3209 63.6586 98.7483C63.6586 99.3238 63.4567 99.4101 62.9374 99.4101H57.5138C56.9079 99.4101 56.7637 99.2087 56.7637 98.6332C56.8021 91.9387 56.8118 85.2633 56.7925 78.6072Z" fill="#707070"/>
<path d="M44.2085 83.2697C44.2085 78.1769 44.2085 73.084 44.2085 67.9912C44.2085 67.3582 44.4105 67.1855 45.0163 67.1855C46.7473 67.1855 48.4494 67.1855 50.1803 67.1855C51.0746 67.1855 51.0746 67.1855 51.0746 68.0487V92.8224C51.0746 94.7501 51.0746 96.6779 51.0746 98.577C51.0746 99.1237 50.9016 99.2675 50.3823 99.2387H44.9875C44.3816 99.2387 44.1797 99.0949 44.1797 98.4619C44.2085 93.4554 44.2085 88.3625 44.2085 83.2697Z" fill="#707070"/>
<path d="M31.689 88.0184C31.689 84.508 31.689 81.0265 31.689 77.5162C31.689 76.8544 31.8332 76.5954 32.5545 76.6242C34.3431 76.6242 36.1318 76.6242 37.9204 76.6242C38.4109 76.6242 38.584 76.7681 38.584 77.286C38.584 84.4217 38.584 91.5287 38.584 98.6644C38.584 99.1535 38.584 99.3549 37.9493 99.3262H32.3525C31.7756 99.3262 31.6602 99.1248 31.6602 98.6356C31.689 95.0965 31.689 91.5574 31.689 88.0184Z" fill="#707070"/>
<path d="M26.0658 92.1034C26.0658 94.2901 26.0658 96.4481 26.0658 98.6348C26.0658 99.1815 25.8638 99.3542 25.3445 99.3254H19.892C19.4016 99.3254 19.2285 99.3254 19.2285 98.6924C19.2285 94.2901 19.2285 89.8878 19.2285 85.5143C19.2285 84.9964 19.4016 84.8525 19.892 84.8525C21.7095 84.8525 23.5559 84.8525 25.3734 84.8525C25.9792 84.8525 26.0946 85.0827 26.0946 85.6006C26.0658 87.7586 26.0658 89.9166 26.0658 92.1034Z" fill="#707070"/>
<path d="M258.214 83.3536C258.904 80.6594 259.558 78.1837 260.176 75.6715L268.243 43.7053C268.348 43.0399 268.674 42.4296 269.169 41.9736C269.664 41.5175 270.298 41.2425 270.968 41.1932C274.163 40.7564 277.402 40.7564 280.597 41.1932C281.263 41.2275 281.899 41.4819 282.405 41.9167C282.911 42.3514 283.26 42.942 283.395 43.5961C286.121 53.8996 288.919 64.203 291.716 74.5065C292.407 77.1279 293.097 79.7492 293.824 82.3342C293.903 82.655 294 82.9711 294.115 83.2808C294.21 83.0915 294.295 82.897 294.369 82.6983C297.712 69.6642 301.079 56.6302 304.471 43.5961C304.517 42.9298 304.82 42.3074 305.314 41.8595C305.809 41.4115 306.457 41.1727 307.123 41.1932C310.39 40.7381 313.704 40.7381 316.971 41.1932C319.042 41.4844 319.659 42.3218 319.187 44.3971C318.715 46.4723 318.024 48.9845 317.37 51.2418C313.01 66.1691 308.637 81.0842 304.253 95.9872C304.098 96.8353 303.648 97.6009 302.982 98.1476C302.317 98.6943 301.479 98.9867 300.619 98.9726C297.93 98.9726 295.205 99.2639 292.516 99.2639C290.79 99.2224 289.068 99.0887 287.356 98.8634C286.605 98.7747 285.9 98.4535 285.34 97.9444C284.78 97.4354 284.392 96.7639 284.231 96.0236C281.324 85.3561 278.345 74.7249 275.401 64.0938C275.344 63.7842 275.206 63.4953 275.002 63.2564C274.675 64.6035 274.311 65.9142 273.984 67.2613C271.55 76.8002 269.115 86.3391 266.717 95.9144C266.586 96.7337 266.179 97.4835 265.565 98.0397C264.95 98.5959 264.164 98.925 263.337 98.9726C258.826 99.5552 254.259 99.5552 249.748 98.9726C249.026 98.868 248.352 98.5481 247.814 98.0546C247.276 97.5611 246.899 96.9168 246.732 96.2056C242.08 80.1133 237.357 64.021 232.669 47.9287C232.318 46.4093 232.099 44.8622 232.015 43.3048C231.955 43.0777 231.947 42.8399 231.991 42.6091C232.035 42.3782 232.13 42.1603 232.27 41.9715C232.409 41.7826 232.59 41.6277 232.797 41.5182C233.005 41.4087 233.234 41.3473 233.469 41.3388C234.706 41.0319 235.973 40.861 237.248 40.8291C239.646 40.8291 242.044 40.8291 244.515 41.084C245.215 41.0861 245.891 41.3413 246.419 41.8029C246.946 42.2644 247.289 42.9012 247.386 43.5961L257.923 82.2614C257.996 82.5162 258.069 82.8075 258.214 83.3536Z" fill="#00458E"/>
<path d="M370.999 63.0029C375.426 65.4412 378.829 69.37 380.595 74.0803C383.539 80.7556 386.338 87.467 389.173 94.1784C389.41 94.8238 389.592 95.4876 389.718 96.1629C390.045 97.6784 389.718 98.364 388.046 98.7248C387.498 98.8617 386.938 98.9463 386.374 98.9774C382.739 98.9774 379.431 98.9774 375.942 98.9774C375.233 98.9469 374.55 98.6977 373.99 98.2644C373.43 97.8311 373.019 97.2353 372.816 96.5599C370.017 89.5598 367.109 82.5958 364.165 75.6318C363.51 74.2544 362.731 72.9381 361.839 71.6988C360.871 70.3226 359.573 69.2066 358.063 68.4509C356.554 67.6951 354.878 67.3233 353.188 67.3689C351.77 67.3689 350.353 67.3689 348.899 67.3689C348.172 67.3689 347.99 67.6215 347.99 68.307C347.99 77.5442 347.99 86.7814 347.99 96.0547C347.99 97.8227 347.59 98.5083 345.664 98.8691C342.004 99.5905 338.237 99.5905 334.577 98.8691C332.615 98.5083 332.288 97.8228 332.288 96.0908C332.288 72.9978 332.288 49.9048 332.288 26.8119C332.161 25.9475 332.314 25.0655 332.726 24.2935C333.137 23.5215 333.786 22.8996 334.577 22.518C335.377 22.1593 336.245 21.9747 337.122 21.9768C344.719 21.9768 352.279 21.9768 359.84 21.9768C365.128 21.838 370.377 22.9122 375.179 25.116C378.032 26.4082 380.494 28.4213 382.319 30.9541C384.143 33.4869 385.266 36.4506 385.574 39.5491C386.193 43.709 385.678 47.9574 384.084 51.8533C383.048 54.198 381.55 56.3128 379.677 58.0729C377.804 59.833 375.595 61.2026 373.18 62.1008L370.999 63.0029ZM347.99 55.7863C350.571 55.7863 353.043 55.7863 355.514 55.7863C357.134 55.8006 358.753 55.6678 360.349 55.3894C362.11 55.1723 363.787 54.5157 365.224 53.4809C366.66 52.4461 367.809 51.0668 368.563 49.4718C369.702 46.8883 369.895 43.9909 369.109 41.2811C368.806 39.8387 368.122 38.5028 367.125 37.4116C366.128 36.3204 364.855 35.5136 363.438 35.0748C361.52 34.5109 359.545 34.16 357.55 34.0284C354.678 33.848 351.77 34.0284 348.899 34.0284C348.135 34.0284 347.954 34.281 347.954 35.0027C347.954 41.6419 347.954 48.2811 347.954 54.9203L347.99 55.7863Z" fill="#00458E"/>
<path d="M530.287 69.4848V96.335C530.287 97.9439 529.882 98.659 528.262 98.8377C525.685 99.1237 523.108 99.231 520.531 99.2668C519.29 99.275 518.054 99.1308 516.85 98.8377C515.341 98.516 514.936 97.9082 514.936 96.4066V20.0747C514.936 18.5374 515.34 17.8223 516.887 17.572C518.828 17.2048 520.8 17.0133 522.777 17C524.594 17.0173 526.405 17.1968 528.189 17.5363C529.845 17.8581 530.213 18.5016 530.213 20.1462V65.5878C530.434 65.3953 530.631 65.1794 530.802 64.9443C535.846 58.4015 540.926 51.8588 545.859 45.2446C546.4 44.4174 547.129 43.7225 547.991 43.214C548.853 42.7055 549.824 42.3971 550.829 42.3128C554.211 41.9133 557.634 41.9976 560.99 42.5631C563.088 42.9564 563.714 44.0647 562.867 45.9596C562.418 46.9956 561.809 47.9598 561.064 48.8198C556.155 54.3019 551.246 59.7601 546.338 65.1945C546.218 65.3048 546.122 65.4378 546.056 65.5854C545.991 65.7329 545.957 65.8919 545.957 66.0526C545.957 66.2133 545.991 66.3723 546.056 66.5198C546.122 66.6674 546.218 66.8004 546.338 66.9106C552.228 75.6581 558.094 84.4413 563.935 93.2603C564.618 94.3769 565.139 95.5802 565.481 96.8356C565.561 97.0495 565.589 97.2781 565.564 97.5041C565.539 97.7302 565.462 97.9479 565.338 98.1407C565.214 98.3335 565.046 98.4964 564.848 98.6171C564.65 98.7379 564.426 98.8133 564.193 98.8377C562.706 99.1708 561.19 99.3624 559.665 99.4098C556.904 99.4098 554.143 99.231 551.381 99.0165C550.779 98.9415 550.204 98.7226 549.709 98.3795C549.215 98.0364 548.815 97.5797 548.547 97.0501C542.73 88.0881 536.901 79.1142 531.06 70.1284L530.545 69.4848H530.287Z" fill="#00458E"/>
<path d="M195.402 99.4095C191.023 99.4324 186.675 98.6678 182.566 97.1523C179.241 95.9035 176.271 93.8614 173.914 91.2031C171.557 88.5448 169.883 85.3507 169.038 81.898C167.629 76.7701 167.137 71.4334 167.583 66.1339C167.803 61.9484 168.789 57.839 170.492 54.0106C171.973 50.5736 174.238 47.5319 177.105 45.1294C179.972 42.7269 183.362 41.0304 187.002 40.1761C193.886 38.3055 201.155 38.4064 207.984 40.4674C211.488 41.4203 214.687 43.261 217.273 45.8117C219.859 48.3624 221.745 51.5373 222.748 55.03C225.766 63.8435 225.766 73.412 222.748 82.2256C221.31 86.6418 218.645 90.556 215.064 93.5093C211.482 96.4625 207.135 98.3325 202.53 98.8998C199.984 99.1182 197.73 99.191 195.402 99.4095ZM182.929 68.9737H182.711C183.038 71.5585 183.22 74.1434 183.693 76.6554C184.099 79.5679 185.469 82.2599 187.584 84.3008C189.119 85.5916 190.936 86.5043 192.887 86.9658C194.838 87.4273 196.87 87.4248 198.821 86.9585C201.068 86.6167 203.159 85.6029 204.82 84.0501C206.481 82.4974 207.635 80.4781 208.13 78.2573C209.876 72.1916 209.876 65.7557 208.13 59.69C207.684 57.2789 206.441 55.0879 204.601 53.47C202.761 51.852 200.43 50.9011 197.984 50.7704C195.187 50.254 192.298 50.7552 189.837 52.1838C187.377 53.6124 185.507 55.8743 184.566 58.5614C183.327 61.887 182.771 65.4281 182.929 68.9737Z" fill="#00458E"/>
<path d="M424.873 38.9893C429.731 38.8161 434.57 39.6724 439.06 41.5002C442.152 42.8256 444.896 44.8251 447.085 47.347C449.273 49.869 450.849 52.8472 451.692 56.0561C453.2 61.4542 453.702 67.076 453.173 72.6498C452.907 76.8081 451.851 80.8809 450.062 84.6584C448.594 87.8286 446.438 90.6445 443.743 92.9078C441.049 95.1711 437.883 96.8269 434.467 97.7587C427.127 99.9604 419.285 99.9604 411.945 97.7587C408.349 96.7901 405.071 94.9185 402.434 92.328C399.798 89.7376 397.892 86.5175 396.906 82.9845C393.881 73.9406 394.116 64.149 397.573 55.2555C399.078 51.255 401.637 47.7186 404.989 45.0078C408.34 42.297 412.364 40.5089 416.65 39.8263C419.354 39.2804 422.095 39.1713 424.836 38.8438L424.873 38.9893ZM437.69 68.9381C437.69 67.8827 437.69 66.6091 437.467 65.2991C437.324 62.7406 436.761 60.2216 435.801 57.8392C435.225 56.3362 434.319 54.9764 433.148 53.8568C431.976 52.7372 430.567 51.8853 429.022 51.3618C426.625 50.6298 424.083 50.48 421.613 50.9251C419.447 51.2706 417.428 52.2186 415.793 53.6567C414.158 55.0949 412.977 56.963 412.39 59.04C410.374 65.1743 410.245 71.7568 412.02 77.9627C412.588 80.6129 414.05 82.9974 416.168 84.7312C418.703 86.6076 421.863 87.478 425.021 87.1693C427.38 87.1923 429.69 86.5079 431.642 85.2075C433.595 83.9071 435.097 82.0525 435.949 79.8914C437.238 76.3835 437.829 72.665 437.69 68.9381Z" fill="#00458E"/>
<path d="M584.015 73.0323C583.701 75.5904 584.115 78.1854 585.207 80.5171C586.3 82.8489 588.027 84.8222 590.189 86.2087C592.111 87.1925 594.211 87.776 596.363 87.9242C602.456 88.2911 608.553 87.2679 614.196 84.9312C614.909 84.6403 615.652 84.4321 616.412 84.3107C617.465 84.3107 618.119 84.6027 618.264 85.6612C618.264 87.3037 618.482 88.9462 618.519 90.5887C618.518 91.3966 618.445 92.2029 618.301 92.9977C618.244 93.6122 618.017 94.1984 617.644 94.689C617.272 95.1796 616.769 95.5548 616.194 95.7717C613.51 96.925 610.709 97.7817 607.841 98.3266C602.669 99.3894 597.369 99.6723 592.114 99.1661C587.732 98.8592 583.48 97.5349 579.693 95.2972C577.2 93.7273 575.049 91.6665 573.37 89.2389C571.691 86.8112 570.518 84.0671 569.923 81.1718C568.002 73.4916 568.102 65.4415 570.213 57.8119C571.008 54.4412 572.507 51.279 574.611 48.5352C576.715 45.7914 579.376 43.529 582.417 41.898C585.804 40.1654 589.517 39.1705 593.313 38.978C597.46 38.5963 601.642 39.0302 605.625 40.2555C609.282 41.3535 612.57 43.4379 615.132 46.2822C617.693 49.1265 619.43 52.6218 620.153 56.3884C621.094 60.4404 621.389 64.617 621.025 68.7618C621.048 69.3773 620.936 69.9905 620.696 70.557C620.455 71.1235 620.092 71.6293 619.634 72.0379C619.175 72.4464 618.632 72.7476 618.043 72.9196C617.455 73.0915 616.835 73.13 616.23 73.0323H584.015ZM584.015 63.2504H584.233H606.025C606.533 63.2504 606.678 63.0314 606.642 62.5569C606.642 61.4254 606.642 60.2939 606.388 59.1624C606.103 56.6484 605.064 54.2808 603.409 52.3734C601.737 50.9104 599.691 49.947 597.502 49.5923C595.313 49.2375 593.07 49.5055 591.024 50.366C588.735 51.5944 586.852 53.4681 585.606 55.7569C584.361 58.0457 583.808 60.6501 584.015 63.2504Z" fill="#00458E"/>
<path d="M101.917 68.0975V95.9362C101.917 98.1055 101.479 98.7924 99.3573 99.0455C96.8551 99.3111 94.3394 99.4318 91.8231 99.407C90.4756 99.4046 89.1346 99.2221 87.8365 98.8647C86.3736 98.5393 86.0078 97.8885 86.0078 96.4424V26.9903C86.0078 23.3749 87.5805 21.9648 91.0916 21.9648H126.971C128.287 21.9648 128.799 22.2541 129.238 23.4833C129.51 24.251 129.659 25.0562 129.677 25.8695C129.732 28.0411 129.659 30.2141 129.458 32.3772C129.202 34.2934 128.434 34.7634 126.459 34.7634H101.954C101.954 35.125 101.954 35.4142 101.954 35.7396C101.954 42.0304 101.954 48.3212 101.954 54.612C101.954 55.3713 102.173 55.5882 102.978 55.5882H125.178C126.934 55.5882 127.592 56.0944 127.921 57.8298C128.378 60.4254 128.378 63.0796 127.921 65.6752C127.834 66.0311 127.724 66.3812 127.592 66.7237C127.453 67.1616 127.167 67.5398 126.781 67.796C126.396 68.0522 125.934 68.1713 125.471 68.1337H101.917V68.0975Z" fill="#00458E"/>
<path d="M634.561 40.3301V28.7678C634.487 28.2827 634.595 27.7867 634.864 27.3813C635.133 26.9758 635.543 26.6914 636.009 26.5862C636.658 26.3508 637.335 26.2041 638.021 26.1499C640.983 25.8037 643.977 25.8771 646.919 26.3681C648.72 26.7317 649.179 27.3498 649.179 29.2405C649.179 32.6583 649.179 36.0761 649.179 39.4939C649.179 40.2574 649.391 40.4756 650.097 40.4756H660.09C660.366 40.4294 660.647 40.4427 660.917 40.5146C661.188 40.5865 661.44 40.7154 661.659 40.8932C661.878 41.071 662.059 41.2937 662.19 41.5473C662.322 41.8009 662.4 42.0798 662.421 42.3663C662.986 45.0989 662.986 47.9236 662.421 50.6562C662.103 52.2924 661.467 52.7287 659.914 52.7287H650.133C649.568 52.7287 649.25 52.7287 649.25 53.4923C649.25 61.9641 649.25 70.4358 649.25 78.944C649.279 80.0853 649.433 81.2197 649.709 82.3254C649.812 83.0575 650.062 83.7594 650.443 84.3861C650.825 85.0128 651.329 85.5505 651.924 85.9647C652.519 86.3789 653.192 86.6605 653.899 86.7914C654.606 86.9223 655.332 86.8997 656.03 86.7249C657.431 86.5627 658.807 86.2207 660.126 85.7069C661.644 85.1615 662.209 85.3796 662.491 87.0158C663.004 89.705 663.004 92.4711 662.491 95.1603C662.375 95.792 662.098 96.3805 661.688 96.8659C661.279 97.3514 660.752 97.7164 660.161 97.9237C657.013 99.1165 653.654 99.6 650.309 99.3417C648.463 99.2469 646.63 98.9668 644.836 98.5054C642.377 97.8772 640.159 96.5004 638.47 94.5546C636.782 92.6089 635.703 90.1844 635.373 87.5976C634.908 85.3997 634.671 83.1569 634.667 80.9074C634.667 71.9266 634.667 62.9094 634.667 53.9286C634.667 52.7651 634.667 52.7651 633.537 52.7651H628.558C628.168 52.8246 627.769 52.7356 627.438 52.5148C627.107 52.294 626.865 51.9564 626.757 51.5652C626.419 50.6313 626.217 49.6512 626.157 48.6565C626.098 46.6411 626.181 44.6239 626.404 42.6208C626.616 40.9482 627.322 40.5119 628.982 40.5119L634.561 40.3301Z" fill="#00458E"/>
<path d="M475.9 69.3043C475.82 72.6037 476.299 75.893 477.318 79.0351C478.02 81.4625 479.558 83.57 481.663 84.9919C483.769 86.4138 486.311 87.0604 488.847 86.8197C491.912 86.6404 494.869 85.6306 497.394 83.9004C498.449 83.2157 499.431 82.4228 500.485 81.666C500.852 81.4036 501.241 81.1744 501.649 80.9812C501.834 80.8811 502.04 80.8253 502.25 80.8183C502.46 80.8113 502.67 80.8533 502.861 80.9409C503.052 81.0286 503.219 81.1594 503.35 81.3229C503.481 81.4863 503.571 81.6779 503.613 81.8822C503.855 82.6533 503.99 83.4536 504.013 84.2608C504.013 86.6395 504.013 89.0181 504.013 91.4688C503.96 92.1685 503.737 92.845 503.363 93.4411C502.99 94.0371 502.477 94.5351 501.868 94.8926C498.972 96.8005 495.719 98.1119 492.302 98.7489C487.226 99.8044 481.965 99.5939 476.991 98.1362C473.495 97.1771 470.304 95.3496 467.721 92.8269C465.137 90.3042 463.245 87.1697 462.225 83.7202C460.653 78.6126 460.049 73.2605 460.443 67.9348C460.563 63.7478 461.374 59.6084 462.844 55.6812C464.356 51.3687 467.113 47.5911 470.773 44.8171C474.432 42.043 478.832 40.3945 483.428 40.076C488.971 39.3412 494.607 40.3098 499.576 42.851C500.001 43.0699 500.414 43.3104 500.813 43.5718C501.715 44.0337 502.467 44.739 502.982 45.6063C503.497 46.4736 503.753 47.4675 503.722 48.4732C503.759 50.5539 503.686 52.635 503.504 54.7081C503.177 57.5193 501.758 57.9878 499.322 56.4381C497.403 55.0502 495.358 53.8436 493.212 52.8341C490.366 51.5694 487.14 51.4277 484.192 52.4376C482.394 53.0158 480.777 54.0473 479.502 55.431C478.227 56.8146 477.337 58.503 476.918 60.3304C476.12 63.2528 475.776 66.2791 475.9 69.3043Z" fill="#00458E"/>
<path d="M156.503 58.2772V96.5114C156.503 98.0493 156.08 98.7289 154.426 98.9435C152.313 99.2405 150.179 99.3959 148.041 99.4084C146.325 99.4254 144.611 99.2816 142.925 98.9792C141.002 98.6931 140.617 98.1209 140.617 96.3325V20.3292C140.617 18.3263 141.079 17.6109 143.194 17.3606C145.581 17.0988 147.984 16.9794 150.387 17.0029C151.829 17.0208 153.262 17.2009 154.657 17.5394C156.157 17.8971 156.503 18.4693 156.503 19.9357V58.2772Z" fill="#00458E"/>
<path d="M672.13 13.4294V27.6127C672.13 28.7401 672.13 28.7401 671.015 28.7401H669.826V10.0472H673.207C673.393 10.0472 673.653 10.4473 673.728 10.7019L678.632 25.2488C678.632 25.467 678.632 25.6852 678.967 26.0489L679.375 25.067L684.131 10.9201C684.354 10.2291 684.651 9.93814 685.394 10.0109C686.138 10.0836 686.881 10.0109 687.698 10.0109V28.7401C687.093 28.7949 686.483 28.7949 685.878 28.7401C685.878 28.7401 685.432 28.1946 685.432 27.94C685.432 24.3032 685.432 20.6665 685.432 16.8116V13.6476C685.317 13.8588 685.218 14.0775 685.134 14.3022C683.537 18.8118 681.902 23.285 680.378 27.8309C680.044 28.9219 679.375 28.7401 678.595 28.8492C677.815 28.9583 677.592 28.4855 677.369 27.8672L672.762 14.4477C672.762 14.1204 672.501 13.8294 672.39 13.5021L672.13 13.4294Z" fill="#00458E"/>
<path d="M658.82 12.1342H652.947V10H666.848V12.0974H661.009V28.7292H660.766C658.646 29.0235 658.646 29.0235 658.646 26.779V12.0606L658.82 12.1342Z" fill="#00458E"/>
</svg>
